<?xml version="1.0" standalone="no"?>
<!DOCTYPE svg PUBLIC "-//W3C//DTD SVG 20010904//EN"
 "http://www.w3.org/TR/2001/REC-SVG-20010904/DTD/svg10.dtd">
<svg version="1.0" xmlns="http://www.w3.org/2000/svg"
 width="756.000000pt" height="840.000000pt" viewBox="0 0 756.000000 840.000000"
 preserveAspectRatio="xMidYMid meet">

<g transform="translate(0.000000,840.000000) scale(0.100000,-0.100000)"
fill="#000000" stroke="none">
<path d="M3415 8128 c-16 -5 -48 -18 -70 -29 -22 -10 -51 -23 -65 -29 -14 -5
-32 -14 -40 -20 -8 -5 -26 -14 -40 -20 -14 -5 -32 -14 -40 -19 -19 -12 -127
-61 -134 -61 -12 0 -174 -102 -206 -129 -59 -51 -62 -54 -142 -118 -42 -34
-102 -74 -132 -88 -38 -18 -66 -41 -90 -74 -20 -27 -62 -68 -93 -92 -71 -53
-161 -137 -175 -162 -8 -16 5 -33 84 -110 51 -51 102 -107 113 -126 11 -19 29
-39 39 -45 11 -6 36 -29 55 -51 20 -21 45 -49 56 -60 37 -39 80 -100 77 -109
-2 -5 1 -12 5 -15 5 -3 22 -28 37 -55 15 -26 46 -66 67 -88 21 -22 39 -46 39
-54 0 -7 6 -17 13 -21 8 -4 20 -20 28 -34 8 -15 38 -62 67 -105 68 -99 80
-154 91 -409 9 -195 14 -225 36 -225 13 0 25 -30 25 -67 0 -14 6 -23 16 -23
11 0 14 5 10 16 -3 9 -9 28 -12 42 -4 15 -10 32 -14 37 -4 6 -6 24 -3 40 6 36
6 150 -1 308 -2 72 0 117 6 117 5 0 3 7 -6 15 -11 11 -14 28 -10 58 3 23 7 71
8 106 2 53 7 67 24 79 12 8 22 24 21 36 0 11 -3 15 -6 8 -2 -6 -9 -10 -14 -7
-5 4 -6 0 -3 -8 7 -19 -12 -31 -22 -15 -11 18 -12 48 -2 54 4 3 8 13 8 23 0
10 8 29 19 42 10 13 19 28 19 32 1 15 12 21 12 6 1 -10 4 -9 11 4 6 10 8 25 5
33 -8 21 12 56 27 47 7 -4 7 0 -2 10 -7 9 -9 17 -4 17 5 0 15 12 21 26 7 14
17 22 22 19 6 -3 10 0 10 9 0 8 19 28 43 45 23 17 48 35 55 41 7 6 16 8 21 5
5 -3 13 0 16 5 8 12 47 29 84 36 14 3 28 7 33 10 4 3 77 5 161 5 108 0 165 -4
197 -14 25 -9 65 -18 90 -22 63 -9 110 -27 103 -38 -3 -6 -2 -7 4 -4 5 3 22
-3 39 -14 16 -11 39 -24 52 -30 34 -13 92 -62 92 -76 0 -7 7 -13 15 -13 8 0
15 -7 15 -17 0 -9 3 -14 6 -10 11 10 42 -26 39 -45 -2 -10 0 -16 4 -13 5 3 12
-2 15 -11 3 -8 10 -13 15 -10 5 3 7 -9 4 -28 -2 -19 0 -37 6 -40 5 -4 8 -18 5
-31 -3 -16 0 -25 8 -25 7 -1 2 -10 -12 -22 -16 -14 -21 -22 -12 -25 6 -3 12
-10 12 -16 0 -23 -31 21 -34 49 -2 16 -4 31 -5 34 0 3 -10 6 -21 7 -15 1 -20
-5 -21 -25 0 -15 -3 -21 -6 -14 -8 20 -41 34 -49 20 -4 -7 -3 -8 5 -4 6 4 14
0 17 -9 14 -35 -8 -25 -66 29 -61 56 -82 63 -114 37 -10 -8 -54 -16 -109 -19
-89 -5 -144 -23 -131 -43 3 -5 2 -8 -3 -7 -12 4 -15 -5 -8 -24 6 -14 15 -16
58 -10 106 13 270 7 305 -11 17 -10 32 -22 32 -27 0 -6 10 -10 23 -11 21 -1
21 -1 -3 -8 l-25 -7 26 -7 c14 -3 31 -18 39 -31 7 -14 17 -23 23 -19 5 3 13 0
17 -7 12 -20 32 -2 20 19 -7 14 -5 23 8 34 17 15 18 14 18 -11 1 -44 10 -97
18 -110 4 -7 2 -12 -3 -12 -6 0 -11 -11 -11 -25 0 -14 -4 -33 -9 -43 -6 -9
-13 -38 -16 -64 -3 -25 -13 -52 -20 -58 -8 -7 -15 -19 -15 -26 0 -8 -4 -14
-10 -14 -5 0 -16 -12 -24 -27 -9 -16 -15 -21 -16 -13 0 11 -2 12 -8 2 -13 -19
-15 -112 -2 -112 5 0 10 5 10 10 0 6 8 10 18 10 15 0 15 2 2 11 -13 9 -13 10
0 7 11 -4 15 -27 18 -106 3 -70 0 -102 -7 -102 -6 0 -11 -6 -11 -14 0 -19 -42
-117 -48 -112 -2 3 -15 -8 -29 -25 -14 -16 -30 -26 -35 -22 -7 3 -8 1 -4 -5 9
-14 -13 -46 -34 -50 -8 -2 -17 -7 -20 -10 -8 -11 -30 -13 -30 -2 0 5 -9 14
-20 20 -16 9 -18 8 -14 -5 4 -9 2 -15 -3 -13 -5 2 -46 -21 -91 -49 -44 -29
-85 -53 -90 -53 -6 0 -12 -6 -15 -12 -4 -10 -7 -10 -18 0 -16 14 -33 16 -24 2
3 -5 -1 -10 -9 -10 -9 0 -16 -4 -16 -10 0 -8 -182 -8 -200 0 -3 1 -9 3 -15 5
-5 1 -13 3 -17 5 -5 1 -11 3 -15 4 -21 5 -111 56 -122 70 -7 8 -26 18 -42 21
-16 4 -29 11 -29 15 0 5 -6 7 -14 4 -8 -3 -17 0 -21 5 -3 6 -10 9 -14 6 -12
-7 -82 67 -108 116 l-23 44 0 -32 c0 -18 6 -33 15 -37 8 -3 15 -17 15 -31 0
-14 9 -33 20 -42 11 -10 20 -22 20 -27 0 -5 7 -17 15 -26 8 -9 25 -54 36 -100
19 -74 20 -92 10 -150 -6 -36 -13 -85 -16 -110 -11 -107 -15 -136 -21 -165
-12 -50 -15 -69 -16 -95 0 -14 -4 -56 -9 -95 -5 -38 -11 -92 -13 -120 -3 -27
-7 -66 -10 -85 -2 -19 -9 -118 -16 -220 -15 -261 -28 -446 -46 -660 -9 -102
-17 -230 -19 -285 -4 -145 -2 -138 -25 -132 -10 3 -25 -2 -31 -10 -11 -12 -8
-14 17 -11 l29 3 2 -62 c1 -35 -3 -65 -8 -69 -6 -4 -6 -11 2 -20 7 -9 8 -14 1
-14 -6 0 -14 5 -17 10 -9 15 -48 13 -41 -2 3 -7 9 -21 12 -30 4 -10 12 -18 20
-18 8 0 11 6 8 15 -4 8 -1 15 5 15 6 0 11 -15 11 -33 0 -27 -5 -34 -31 -44
-18 -7 -36 -10 -41 -7 -4 3 -8 39 -7 80 2 83 10 94 65 94 8 0 12 5 8 11 -4 6
-20 9 -39 6 l-32 -5 -1 66 c-2 86 2 98 38 106 17 3 30 12 30 20 0 15 -22 13
-46 -5 -6 -5 -14 -6 -17 -2 -12 11 -8 163 5 186 6 12 17 48 23 79 10 47 10 70
-3 132 -14 64 -14 91 -4 193 7 65 15 156 17 203 3 47 7 101 9 120 3 19 12 103
21 185 9 83 17 157 17 165 0 13 18 125 33 205 3 17 7 50 9 75 6 59 42 270 51
293 13 32 24 17 19 -25 -3 -23 -7 -45 -10 -49 -2 -4 0 -10 5 -13 14 -9 39 66
34 101 -5 28 -8 31 -24 22 -16 -8 -19 -6 -19 16 0 14 9 43 20 65 11 22 20 44
20 51 0 20 -28 -10 -32 -34 -2 -15 -9 -21 -20 -19 -17 3 -23 -8 -18 -37 1 -8
-7 -22 -19 -30 -19 -15 -111 -185 -111 -205 0 -29 -79 -206 -92 -206 -5 0 -17
-8 -27 -17 -11 -10 -28 -24 -38 -32 -115 -91 -293 -293 -366 -417 -74 -127
-143 -322 -167 -468 -35 -220 -50 -662 -27 -791 15 -87 15 -275 0 -430 -13
-123 -16 -330 -16 -1130 0 -869 2 -994 17 -1100 9 -66 16 -169 15 -230 0 -60
-1 -134 0 -162 l1 -53 70 0 70 0 0 49 c0 47 12 72 24 52 4 -5 7 -30 8 -55 2
-44 4 -46 33 -45 28 0 28 1 8 9 -38 15 -26 27 25 26 38 -1 47 -4 46 -19 -1 -9
5 -17 14 -17 12 0 14 10 8 61 -4 43 -3 60 6 57 12 -4 39 -98 31 -110 -2 -5 10
-8 28 -8 26 0 30 3 21 12 -10 10 -8 16 9 29 13 9 22 28 23 44 1 16 7 30 13 32
10 4 11 -10 7 -56 -7 -61 -7 -61 20 -61 23 0 26 3 20 24 -4 18 -1 25 18 30 30
8 38 8 37 -1 -5 -34 3 -53 22 -53 20 0 21 4 15 40 -3 22 -3 40 2 40 17 0 32
-25 32 -52 l0 -28 90 0 c83 0 90 1 90 20 0 11 5 20 11 20 7 0 5 10 -5 25 -11
17 -16 47 -16 101 0 67 2 75 15 64 12 -10 15 -9 15 5 0 9 -9 19 -20 22 -11 3
-20 12 -20 20 0 11 4 11 21 2 19 -10 20 -8 14 10 -5 15 -2 21 9 21 12 0 16
-12 17 -47 1 -27 3 -55 4 -63 1 -8 3 -57 4 -107 l1 -93 355 0 355 0 2 53 c1
28 3 68 3 87 2 38 1 38 84 24 l33 -5 -4 -80 -5 -79 165 2 165 3 1 27 c1 15 7
33 13 39 14 14 83 1 90 -17 7 -19 33 -18 33 1 0 8 6 15 13 16 56 5 107 -20
107 -51 0 -19 7 -20 175 -20 l175 0 1 63 c1 134 10 275 20 340 10 65 12 67 39
67 16 0 32 5 36 11 8 14 -14 29 -42 29 -22 0 -41 40 -29 60 3 4 7 77 10 162 7
186 8 192 43 184 26 -6 26 -6 8 9 -11 8 -24 15 -29 15 -8 0 -3 102 9 177 4 30
7 32 35 26 27 -5 30 -3 27 13 -3 14 -11 18 -31 16 -27 -3 -27 -2 -27 62 0 35
4 108 10 162 14 140 31 487 35 697 2 98 5 180 7 182 2 2 23 5 46 6 56 4 56 27
0 31 -36 3 -43 6 -41 23 1 11 5 51 9 89 3 38 7 76 9 85 1 9 15 19 31 22 16 4
25 8 19 9 -19 6 -30 8 -43 9 -15 1 -13 54 18 411 6 63 12 133 15 155 3 22 7
129 10 238 2 109 6 201 9 205 2 4 7 61 10 127 3 66 9 172 12 235 8 136 7 164
-5 168 -11 4 -1 52 10 52 5 0 9 11 9 25 0 14 -4 25 -10 25 -5 0 -10 13 -10 29
0 25 3 28 21 24 19 -5 20 -4 8 16 -8 11 -17 21 -22 21 -4 0 -7 27 -6 60 2 49
5 60 18 58 9 -2 15 3 13 10 -1 8 -5 80 -8 160 -3 81 -10 149 -15 150 -5 2 -9
17 -9 32 0 36 -20 132 -30 145 -4 6 -10 26 -14 46 -4 21 -14 43 -23 50 -15 12
-16 12 -9 -6 5 -11 10 -38 12 -60 2 -21 8 -53 14 -70 16 -50 31 -136 36 -220
3 -44 9 -105 14 -135 4 -30 4 -62 -1 -70 -4 -8 -9 -13 -9 -10 0 3 -3 30 -6 60
-16 163 -46 357 -69 443 -25 99 -45 137 -87 170 -64 49 -86 64 -118 81 -70 38
-167 107 -245 177 -44 39 -93 78 -110 86 -16 8 -41 21 -55 28 -46 27 -56 20
-69 -47 -7 -35 -16 -79 -21 -98 -92 -346 -96 -364 -105 -470 -2 -30 -9 -86
-14 -125 -6 -38 -13 -178 -16 -310 -3 -132 -10 -283 -15 -335 -5 -52 -15 -212
-21 -355 -5 -143 -12 -285 -14 -315 -2 -30 -4 -83 -4 -117 l-1 -63 -37 -1 -38
-2 39 -10 38 -11 -7 -196 c-3 -107 -13 -247 -20 -310 -8 -63 -14 -187 -15
-275 -1 -220 -9 -454 -16 -487 -3 -16 -10 -28 -16 -28 -7 0 -6 -5 1 -14 7 -9
10 -37 7 -77 -8 -99 -18 -329 -16 -380 1 -42 -2 -47 -24 -51 -53 -10 -57 2
-52 140 5 106 8 129 23 141 17 13 17 13 1 8 -17 -6 -18 6 -12 196 3 111 6 329
7 483 2 195 6 286 14 296 7 8 8 19 3 28 -5 8 -7 17 -5 20 1 3 6 118 10 255 11
406 29 733 60 1085 8 96 17 218 20 270 4 52 10 142 15 200 11 115 15 469 6
478 -3 3 -6 -3 -6 -13 0 -17 -34 -99 -105 -251 -41 -87 -131 -208 -219 -293
l-66 -63 -30 26 c-17 14 -61 42 -98 63 -159 88 -184 117 -182 222 0 64 -6 145
-12 158 -3 4 -4 19 -4 33 1 14 -3 28 -8 31 -7 6 -17 60 -18 109 -1 8 -5 18
-11 21 -14 10 -18 87 -5 95 7 5 9 2 5 -9 -3 -9 -2 -19 3 -22 6 -4 10 -1 10 5
0 7 7 7 23 -1 12 -7 42 -11 65 -10 24 1 49 -2 55 -7 8 -6 24 -3 47 9 19 11 31
19 27 19 -4 0 0 11 9 25 16 25 20 26 98 22 112 -6 234 16 325 59 42 20 88 38
104 41 l27 6 -4 -90 c-2 -49 -11 -106 -20 -126 -8 -20 -11 -37 -7 -37 5 0 19
26 31 58 12 31 29 71 36 89 8 17 14 35 14 40 0 4 15 29 34 56 18 26 39 68 45
93 7 25 18 56 25 67 8 12 12 31 10 42 -3 11 -7 56 -11 100 -5 68 -2 88 15 125
11 25 23 55 26 67 4 11 13 24 20 26 8 3 17 19 21 36 3 16 13 35 21 42 16 13
19 34 4 24 -12 -7 -13 15 -2 31 4 6 17 14 30 18 12 4 22 12 22 17 0 5 11 9 24
9 30 0 52 25 39 43 -6 6 -13 34 -16 61 -2 26 -12 55 -20 63 -13 14 -13 19 6
50 l20 35 -21 -13 c-16 -10 -25 -10 -32 -3 -8 8 -3 20 17 41 36 39 64 53 91
46 l21 -5 -23 -22 c-12 -11 -20 -20 -17 -19 2 2 10 -2 18 -8 10 -9 13 -8 13 4
0 20 48 16 61 -4 6 -10 9 -10 9 -1 0 27 18 10 24 -23 4 -19 8 -35 10 -35 2 0
48 9 102 20 108 22 138 37 162 81 11 18 25 29 39 29 35 0 43 30 43 172 0 73 7
171 15 217 8 46 12 87 10 92 -3 4 -1 10 5 14 5 3 10 26 10 51 0 25 6 60 14 79
8 18 18 60 21 92 4 32 14 71 22 86 8 16 18 59 23 95 8 68 42 178 60 196 18 18
10 55 -17 81 -46 42 -337 175 -386 175 -9 0 -18 4 -21 9 -3 5 -18 12 -33 15
-28 7 -76 28 -168 72 -28 13 -55 24 -61 24 -7 0 -17 6 -23 14 -7 8 -28 17 -49
21 -20 4 -51 15 -68 26 -17 10 -33 16 -36 13 -4 -3 -26 4 -51 15 -25 12 -51
21 -57 21 -6 0 -27 7 -48 17 -20 9 -40 17 -44 17 -3 1 -10 4 -14 9 -4 4 -19 7
-33 7 -14 0 -35 7 -45 15 -10 8 -22 12 -27 10 -4 -3 -10 -1 -14 5 -3 5 -19 10
-34 10 -15 0 -31 4 -37 8 -5 5 -29 14 -54 22 -101 29 -190 64 -274 106 -91 45
-117 50 -171 32z m780 -1677 c0 -16 -3 -27 -7 -25 -6 4 -5 29 1 52 4 11 7 -3
6 -27z m249 -401 c18 -41 14 -80 -7 -80 -7 0 -12 16 -13 38 0 20 -4 47 -7 60
-10 36 8 25 27 -18z m-24 -42 c0 -7 -10 -26 -21 -43 -12 -16 -18 -22 -15 -12
3 11 9 30 12 43 6 25 24 33 24 12z m-1848 -2263 c15 -14 37 -25 48 -25 12 0
27 -6 34 -12 25 -26 0 -168 -30 -168 -22 0 -24 15 -5 30 18 13 19 21 10 65 -9
49 -28 84 -30 55 0 -8 -1 -37 -2 -65 l-2 -49 -65 -2 c-36 -2 -85 -7 -110 -13
-46 -10 -65 -6 -40 9 10 6 11 12 2 22 -6 8 -14 47 -17 87 -5 58 -4 72 6 69 7
-2 14 -20 15 -39 3 -51 3 -52 17 -41 7 6 35 14 63 17 39 6 53 4 63 -9 7 -9 9
-16 3 -16 -5 0 -12 -9 -15 -21 -5 -20 -27 -18 -27 2 0 6 5 7 10 4 6 -3 10 -1
10 4 0 18 -36 12 -55 -9 -10 -11 -22 -17 -26 -14 -5 3 -6 -1 -3 -9 3 -9 19
-13 52 -11 26 1 57 2 70 3 21 1 22 4 16 59 -4 31 -14 67 -22 80 -19 29 -3 28
30 -3z m13 -390 c-4 -83 -10 -95 -51 -95 -19 0 -34 5 -34 10 0 6 11 10 25 10
29 0 50 31 32 49 -9 9 -9 16 1 31 11 18 10 20 -10 20 -13 0 -18 3 -12 8 6 4
17 18 24 31 18 35 29 9 25 -64z m-63 50 c-5 -30 -18 -32 -32 -6 -14 28 -13 31
14 31 19 0 22 -4 18 -25z m-1 -67 c-7 -33 -31 -52 -31 -24 0 18 21 56 31 56 4
0 4 -14 0 -32z m1102 -37 c14 -14 -2 -51 -28 -63 -46 -21 -98 40 -59 69 19 15
70 11 87 -6z m1007 -118 c82 -34 169 -97 231 -169 48 -55 48 -53 0 -218 -71
-244 -81 -251 -331 -251 -145 0 -168 2 -193 19 -40 27 -102 165 -117 259 -17
101 -10 156 25 202 36 46 131 115 216 155 68 32 96 32 169 3z m-1894 -74 c19
-11 34 -25 34 -30 0 -5 5 -9 10 -9 6 0 10 9 10 19 0 25 18 37 33 22 8 -8 7
-20 -5 -43 -14 -30 -14 -37 1 -75 14 -40 14 -44 -2 -60 -16 -17 -19 -16 -42
10 -29 31 -69 44 -88 28 -7 -5 -30 -12 -51 -15 -33 -4 -38 -2 -47 22 -22 55
-23 91 -3 99 10 4 19 2 22 -5 3 -9 9 -8 23 2 21 15 69 10 74 -8 2 -6 6 -23 9
-38 9 -38 46 -40 46 -3 0 14 -7 28 -16 32 -8 3 -20 16 -25 29 -5 13 -12 24
-16 23 -20 -3 -34 2 -28 11 9 15 24 12 61 -11z m-398 -21 c5 -7 12 -22 14 -33
4 -26 65 -28 79 -3 16 30 43 38 78 25 17 -6 29 -17 27 -23 -3 -7 2 -15 11 -18
14 -6 13 -9 -3 -27 -18 -21 -18 -21 4 -39 28 -23 28 -30 -2 -30 -35 0 -72 -16
-97 -41 -17 -17 -23 -18 -29 -8 -9 14 5 49 20 49 6 0 10 7 10 15 0 13 4 14 21
4 31 -16 40 1 25 51 -16 56 -36 64 -36 16 0 -23 -5 -39 -15 -42 -8 -4 -15 -14
-15 -23 0 -24 -20 -41 -47 -41 -29 0 -30 21 -2 38 12 8 19 21 17 34 -5 37 -24
30 -37 -12 -7 -22 -16 -38 -20 -36 -5 3 -11 34 -14 68 -3 34 -10 64 -16 66
-12 4 -5 22 8 22 5 0 13 -6 19 -12z m675 -148 c9 -33 -3 -61 -23 -55 -22 7
-32 -6 -19 -25 8 -13 10 -13 18 0 13 19 22 9 21 -26 0 -16 0 -57 1 -90 0 -61
-14 -92 -44 -95 -7 -1 1 -4 17 -8 l28 -6 -3 -120 c-7 -280 7 -772 26 -878 3
-16 0 -37 -5 -47 -6 -10 -6 -21 -2 -24 5 -3 9 -123 9 -268 1 -145 -1 -255 -4
-245 -4 16 -7 15 -28 -9 l-23 -27 -11 22 c-16 30 -3 88 24 109 12 10 26 28 29
40 7 20 5 22 -17 17 -30 -8 -41 13 -27 50 7 17 6 25 -1 25 -7 0 -9 11 -6 25 2
14 -1 54 -8 88 -8 34 -15 88 -17 120 l-4 57 29 0 c19 0 27 4 24 13 -2 6 -15
11 -28 11 -13 -1 -26 3 -30 7 -3 5 -6 178 -7 384 l-2 376 22 9 23 9 -22 0
c-13 1 -24 9 -28 21 -9 28 -4 121 7 143 6 12 5 23 -2 33 -15 17 -5 80 13 88 9
3 9 7 -1 14 -7 5 -12 24 -11 43 1 19 -1 48 -5 66 -6 25 -3 36 15 54 19 19 20
23 5 31 -20 11 -21 52 0 72 22 23 61 20 67 -4z m-663 -30 c0 -11 -4 -20 -10
-20 -5 0 -10 9 -10 20 0 11 5 20 10 20 6 0 10 -9 10 -20z m1230 -461 c13 -24
4 -41 -10 -19 -5 8 -12 11 -16 7 -4 -4 0 -13 10 -20 16 -12 16 -14 2 -27 -14
-11 -19 -10 -31 6 -18 24 -19 61 -2 67 24 10 36 7 47 -14z m661 -105 c22 -4
42 -11 46 -17 4 -6 0 -8 -9 -5 -8 4 -21 2 -29 -2 -8 -5 -16 -5 -20 2 -4 6 -12
9 -18 7 -8 -3 -6 -12 7 -27 13 -14 23 -19 27 -12 11 17 31 11 42 -12 10 -22
10 -22 27 10 9 18 14 37 11 42 -3 6 1 10 9 10 12 0 16 -11 17 -37 1 -21 1 -42
-1 -48 -1 -5 8 -1 21 10 20 18 22 19 32 3 10 -15 12 -15 22 -1 8 11 20 14 37
10 22 -6 26 -12 25 -42 -1 -26 -5 -35 -18 -35 -9 0 -19 -7 -23 -15 -4 -11 1
-15 19 -15 20 0 25 6 30 38 11 61 12 63 52 60 35 -3 39 -6 52 -48 13 -42 15
-43 25 -21 7 16 6 28 -3 43 -10 16 -10 19 1 12 7 -4 24 -8 38 -8 21 0 26 5 28
32 5 46 28 40 51 -14 18 -40 23 -44 40 -35 11 6 29 11 40 11 13 0 21 9 26 30
4 18 13 30 22 30 12 0 13 -3 4 -14 -18 -21 -19 -148 -2 -154 10 -3 12 0 7 14
-19 49 -18 71 3 77 28 7 29 2 24 -65 -5 -55 -6 -57 -32 -53 -14 3 -39 7 -56 9
-16 2 -37 5 -45 7 -10 3 -16 -5 -18 -26 -2 -16 -8 -34 -14 -40 -6 -7 -9 -5 -8
5 1 8 2 27 1 42 -1 25 -5 28 -33 26 -62 -3 -232 12 -308 28 -41 8 -105 16
-142 17 -37 2 -70 6 -74 9 -9 9 -16 156 -8 169 3 6 13 8 21 5 8 -3 32 -9 54
-12z m100 -314 c1 -5 3 -14 4 -20 1 -5 3 -17 4 -25 2 -21 40 -40 54 -26 9 9 8
16 0 30 -7 10 -9 22 -6 25 14 14 29 4 38 -26 l10 -31 87 2 c47 1 88 -1 91 -6
3 -4 -3 -23 -12 -42 l-18 -34 -7 26 c-8 34 -26 35 -26 3 0 -13 -3 -31 -6 -40
-10 -26 22 -29 54 -6 25 18 29 29 31 72 2 59 8 73 25 59 20 -17 19 -136 -1
-153 -20 -16 -160 -15 -176 1 -6 6 -19 11 -28 11 -9 0 -17 6 -16 13 1 37 -4
69 -10 63 -4 -4 -6 -25 -4 -47 l3 -39 -54 4 c-29 2 -64 4 -76 5 -24 1 -24 2
-17 89 4 48 13 90 19 94 16 11 36 10 37 -2z m395 -126 c1 -22 -5 -46 -13 -56
-18 -20 -40 -13 -23 7 7 9 9 27 5 44 -4 17 -3 35 0 41 13 22 30 2 31 -36z
m-21 -110 c0 -10 -8 -20 -17 -22 -18 -3 -26 27 -11 42 12 11 28 0 28 -20z
m-711 -435 c5 -4 8 -41 6 -81 -1 -40 -3 -91 -4 -113 -1 -39 -2 -40 -36 -40
l-35 0 -3 114 c-3 122 5 146 42 135 12 -3 25 -10 30 -15z m-2 -271 c9 -23 -8
-132 -21 -136 -9 -3 -9 -7 -1 -18 8 -8 9 -32 5 -66 -3 -29 -10 -100 -15 -158
-5 -58 -14 -141 -19 -185 -5 -44 -12 -140 -16 -213 l-8 -134 -51 7 c-28 4 -53
9 -55 11 -2 2 2 52 8 111 7 60 17 142 21 183 5 41 11 84 13 95 4 18 12 79 37
288 10 78 13 85 35 67 22 -18 25 -11 18 40 -6 36 -8 40 -13 21 -10 -42 -26
-34 -22 11 6 82 9 88 46 88 19 0 36 -6 38 -12z m-984 -80 c-2 -7 3 -12 10 -10
14 2 16 -14 2 -23 -5 -3 -7 -12 -4 -20 4 -8 10 -13 14 -10 4 2 10 -39 14 -92
6 -75 4 -98 -6 -104 -10 -7 -10 -9 0 -9 8 0 12 -19 12 -62 1 -35 5 -83 10
-108 10 -56 -2 -74 -43 -66 -23 5 -28 3 -25 -12 2 -9 11 -15 19 -13 51 13 59
10 57 -21 -2 -27 -5 -29 -33 -24 -46 10 -56 27 -58 97 l-2 63 29 1 c16 0 31 5
33 11 6 19 -27 45 -48 39 -17 -6 -19 -1 -20 42 0 26 -1 84 -2 128 l-2 80 27 0
c40 -1 46 34 8 48 -38 14 -43 30 -19 56 23 24 30 26 27 9z m11 -645 l-1 -58
-9 49 c-7 45 -5 66 7 66 2 0 3 -26 3 -57z m47 38 c0 -11 -5 -17 -13 -14 -17 6
-17 20 0 26 6 3 12 6 12 6 1 1 1 -7 1 -18z m-6 -36 c4 3 10 -4 13 -15 3 -11 1
-20 -4 -20 -5 0 -9 5 -9 11 0 5 -4 8 -9 5 -11 -7 -22 19 -13 29 4 3 8 1 10 -4
2 -6 7 -9 12 -6z"/>
<path d="M3575 3277 c-4 -10 -5 -21 -1 -24 10 -10 18 4 13 24 -4 17 -4 17 -12
0z"/>
<path d="M4505 3163 c-44 -11 -143 -76 -204 -133 l-64 -61 6 -92 c6 -89 24
-162 43 -176 5 -3 18 -25 29 -49 10 -24 30 -51 44 -61 36 -26 194 -37 292 -21
75 12 104 28 120 65 12 28 32 59 43 66 4 4 3 10 -3 13 -8 5 -7 12 4 22 8 9 15
21 15 27 0 7 -5 6 -11 -3 -9 -12 -10 -12 -5 3 3 10 6 21 6 23 0 3 5 2 12 -2 6
-4 8 -3 4 4 -3 6 -2 32 4 58 8 35 8 49 -1 55 -7 4 -9 14 -4 25 6 15 8 16 13 4
3 -8 11 -21 19 -28 11 -11 13 -10 13 7 0 11 -9 25 -20 31 -11 6 -19 14 -17 18
2 8 -37 62 -46 62 -2 0 -21 15 -42 34 -39 36 -163 102 -205 109 -14 2 -34 2
-45 0z m92 -38 c18 -3 43 -9 57 -15 29 -11 176 -153 176 -170 0 -6 -4 -8 -10
-5 -6 4 -10 -8 -10 -30 0 -22 -4 -34 -10 -30 -5 3 -10 19 -10 34 0 30 -53 92
-125 146 -36 27 -47 30 -110 29 -42 -1 -82 -8 -100 -18 -16 -9 -34 -16 -40
-16 -18 -1 -62 -54 -80 -95 -11 -28 -15 -62 -13 -115 2 -60 0 -75 -12 -75 -20
0 -30 58 -23 135 5 53 12 73 40 109 30 39 128 123 110 94 -5 -8 2 -7 20 2 15
8 39 15 53 15 20 0 22 2 10 11 -11 8 -8 9 15 5 17 -3 44 -8 62 -11z m102 -131
c43 -38 51 -53 61 -101 7 -30 10 -68 8 -83 -5 -33 14 -31 30 3 8 17 11 18 11
5 1 -9 -3 -20 -9 -23 -5 -3 -10 -15 -10 -26 0 -21 -16 -26 -23 -6 -5 15 -44
-16 -52 -42 -8 -25 -53 -48 -117 -60 -49 -9 -67 -7 -120 10 -84 26 -141 80
-133 124 5 23 4 26 -4 15 -9 -12 -11 -11 -11 8 0 13 3 21 8 18 4 -2 9 14 10
37 5 70 6 76 14 71 4 -3 8 0 8 7 0 14 59 79 71 79 4 0 20 5 36 12 39 16 53 18
53 7 0 -5 -7 -9 -15 -9 -8 0 -15 -4 -15 -10 0 -5 -20 -21 -43 -35 -38 -22 -46
-33 -62 -84 -11 -38 -15 -72 -11 -92 7 -35 45 -99 59 -99 4 0 21 -10 37 -21
24 -18 37 -21 81 -16 47 6 57 12 106 64 52 54 54 59 47 97 -9 55 -28 90 -70
128 -81 74 -92 86 -88 91 13 13 98 -29 143 -69z m-107 -23 c35 -21 88 -89 88
-112 0 -45 -33 -100 -71 -119 -52 -27 -83 -25 -133 9 -70 48 -82 129 -28 187
60 64 86 71 144 35z m177 -263 c-5 -18 -14 -35 -20 -37 -6 -2 -24 -18 -40 -36
-32 -35 -61 -44 -159 -50 -78 -5 -130 9 -160 43 -14 16 -37 36 -51 45 -21 13
-47 57 -34 57 22 0 55 -23 55 -39 0 -23 33 -46 80 -55 82 -15 97 -16 150 -5
30 6 66 11 80 12 13 1 29 11 35 22 39 76 82 104 64 43z"/>
<path d="M4463 2824 c-4 -10 4 -24 23 -40 34 -27 57 -33 26 -5 -12 10 -22 25
-22 32 0 11 -2 11 -11 -1 -9 -12 -10 -11 -6 8 6 25 -1 30 -10 6z"/>
<path d="M2624 3015 c1 -35 9 -44 21 -25 4 7 13 7 26 0 17 -10 19 -7 19 25 0
35 -20 49 -35 25 -5 -8 -11 -8 -19 -1 -10 8 -12 2 -12 -24z"/>
<path d="M2960 2775 c-10 -13 -9 -15 9 -15 12 0 21 6 21 15 0 8 -4 15 -9 15
-5 0 -14 -7 -21 -15z"/>
<path d="M2956 2572 c-2 -4 4 -9 15 -9 11 -1 17 2 14 8 -7 11 -22 12 -29 1z"/>
<path d="M2960 2036 c0 -2 7 -7 16 -10 8 -3 12 -2 9 4 -6 10 -25 14 -25 6z"/>
<path d="M2965 1661 c-3 -5 -1 -12 5 -16 5 -3 10 1 10 9 0 18 -6 21 -15 7z"/>
<path d="M2974 1445 c21 -16 32 -13 21 4 -3 6 -14 11 -23 11 -15 -1 -15 -2 2
-15z"/>
<path d="M2992 1343 c2 -10 10 -18 18 -18 8 0 16 8 18 18 2 12 -3 17 -18 17
-15 0 -20 -5 -18 -17z"/>
<path d="M3000 1116 c0 -2 7 -6 15 -10 8 -3 15 -1 15 4 0 6 -7 10 -15 10 -8 0
-15 -2 -15 -4z"/>
<path d="M4270 2234 c-9 -10 -10 -18 -3 -25 8 -8 14 -5 22 9 13 25 -2 38 -19
16z"/>
<path d="M4360 2220 c0 -11 6 -20 14 -20 21 0 31 21 15 31 -22 14 -29 11 -29
-11z"/>
<path d="M4688 2203 c-14 -28 -14 -33 -2 -33 17 0 27 21 22 47 -3 14 -7 11
-20 -14z"/>
<path d="M4551 2198 c-1 -20 4 -28 15 -28 12 0 14 4 7 13 -6 6 -13 19 -16 27
-3 9 -6 3 -6 -12z"/>
<path d="M4768 2186 c-21 -16 -23 -26 -5 -26 7 0 18 9 25 20 14 23 5 26 -20 6z"/>
<path d="M4310 1979 c0 -5 5 -7 10 -4 6 3 10 8 10 11 0 2 -4 4 -10 4 -5 0 -10
-5 -10 -11z"/>
<path d="M4330 1916 c0 -22 4 -27 16 -22 9 3 24 6 35 6 10 0 19 4 19 9 0 5 -9
7 -20 4 -13 -4 -26 1 -35 13 -14 18 -14 17 -15 -10z"/>
<path d="M4500 1901 c0 -17 5 -33 10 -36 6 -4 10 8 10 29 0 20 -4 36 -10 36
-5 0 -10 -13 -10 -29z"/>
<path d="M3953 1188 c2 -7 10 -13 17 -13 7 0 15 6 18 13 2 7 -5 12 -18 12 -13
0 -20 -5 -17 -12z"/>
<path d="M3935 851 c-3 -5 -1 -12 5 -16 5 -3 10 1 10 9 0 18 -6 21 -15 7z"/>
<path d="M3010 829 c-13 -8 -12 -11 3 -20 9 -6 15 -14 12 -20 -4 -5 -2 -9 3
-9 6 0 13 7 16 16 4 10 2 13 -6 8 -8 -5 -9 -2 -5 9 8 20 -4 29 -23 16z"/>
<path d="M3000 725 c0 -19 11 -24 33 -16 17 6 16 8 -7 19 -21 9 -26 9 -26 -3z"/>
<path d="M3010 681 c0 -6 5 -13 10 -16 6 -3 10 1 10 9 0 9 -4 16 -10 16 -5 0
-10 -4 -10 -9z"/>
<path d="M2375 6888 c-3 -18 -2 -51 3 -73 9 -38 10 -36 11 33 1 77 -4 92 -14
40z"/>
<path d="M4141 6694 c0 -11 3 -14 6 -6 3 7 2 16 -1 19 -3 4 -6 -2 -5 -13z"/>
<path d="M3183 6673 c-7 -2 -13 -13 -13 -24 0 -23 -70 -120 -81 -113 -5 2 -7
20 -5 40 1 19 -3 39 -8 44 -14 11 -8 -69 6 -87 6 -7 3 -25 -7 -48 -17 -43 -20
-69 -5 -60 6 4 7 11 4 17 -4 6 -3 8 3 5 5 -3 28 14 51 38 l41 44 108 -1 c59
-1 114 -6 122 -12 12 -9 13 -8 6 3 -6 11 -5 12 6 5 8 -5 25 -9 40 -10 20 0 25
5 27 27 3 39 -30 59 -98 60 -70 2 -114 11 -112 24 2 12 -47 27 -65 20 -7 -2
-13 3 -13 11 0 9 5 12 12 8 7 -4 8 -3 4 4 -4 7 -8 12 -9 11 -1 0 -8 -3 -14 -6z
m284 -128 c0 -8 -4 -12 -9 -9 -5 3 -6 10 -3 15 9 13 12 11 12 -6z"/>
<path d="M4226 6671 c-4 -7 -5 -15 -2 -18 9 -9 19 4 14 18 -4 11 -6 11 -12 0z"/>
<path d="M2337 6633 c-4 -3 -7 -42 -7 -87 0 -58 3 -77 11 -69 6 6 11 43 10 83
-1 74 -3 85 -14 73z"/>
<path d="M3799 6413 l-24 -28 30 25 c17 14 32 26 34 28 2 1 0 2 -6 2 -5 0 -20
-12 -34 -27z"/>
<path d="M3990 6416 c0 -2 7 -7 16 -10 8 -3 12 -2 9 4 -6 10 -25 14 -25 6z"/>
<path d="M3177 6389 c-21 -11 -41 -28 -44 -37 -4 -9 -11 -20 -17 -24 -6 -4 3
-10 22 -14 17 -4 32 -11 32 -16 0 -5 10 -6 23 -2 23 8 101 15 150 14 23 0 27
4 27 26 0 18 5 25 17 22 21 -4 28 -25 11 -31 -7 -2 0 -3 16 -1 41 6 44 13 17
33 -17 13 -20 20 -10 23 9 3 8 6 -5 11 -11 5 -15 3 -10 -5 5 -8 -6 -9 -41 -5
-26 4 -70 7 -97 7 -30 0 -47 4 -43 10 9 15 -5 12 -48 -11z m96 -49 c3 -13 0
-20 -8 -20 -17 0 -28 17 -20 30 10 16 22 12 28 -10z"/>
<path d="M3825 6394 c-22 -8 -47 -22 -55 -30 -11 -11 -3 -10 32 5 l47 20 7
-22 c9 -28 22 -37 57 -37 15 0 27 -4 27 -10 0 -15 110 -11 145 5 17 7 23 14
14 14 -8 1 -25 14 -37 30 -12 17 -30 29 -39 29 -10 -1 -49 2 -88 5 -51 5 -81
2 -110 -9z m172 -41 c2 -6 -5 -13 -15 -15 -15 -4 -18 -1 -14 14 5 19 23 20 29
1z"/>
<path d="M2296 6339 c-3 -8 -7 -32 -9 -54 -2 -22 -16 -89 -31 -150 -15 -60
-35 -155 -46 -210 -11 -55 -33 -165 -51 -245 -45 -212 -44 -202 -15 -248 24
-39 52 -62 75 -62 25 0 43 68 57 213 7 83 19 176 26 206 8 38 12 135 10 305
-2 233 -5 280 -16 245z"/>
<path d="M3798 6343 c6 -2 18 -2 25 0 6 3 1 5 -13 5 -14 0 -19 -2 -12 -5z"/>
<path d="M2847 6252 c-10 -11 -17 -34 -16 -58 l1 -39 16 38 c13 33 19 38 39
32 23 -5 24 -5 7 20 -19 30 -26 31 -47 7z"/>
<path d="M3467 6182 c-30 -32 -33 -42 -13 -42 13 0 51 59 43 67 -2 1 -16 -10
-30 -25z"/>
<path d="M4557 6160 c3 -25 5 -76 6 -114 0 -50 2 -64 10 -51 10 19 4 105 -12
170 l-10 40 6 -45z"/>
<path d="M3687 6167 c-3 -8 3 -14 15 -14 16 -2 17 1 8 13 -15 17 -17 17 -23 1z"/>
<path d="M3377 6103 c-4 -3 -7 -21 -7 -39 0 -39 29 -64 74 -64 28 0 29 0 11
20 -18 20 -17 20 28 20 26 0 47 -4 47 -9 0 -5 14 -14 32 -20 27 -10 36 -9 58
7 34 25 76 32 97 16 17 -13 17 -13 0 -14 -30 0 -8 -20 22 -20 34 0 61 28 60
61 l0 24 -11 -22 c-16 -33 -44 -38 -74 -14 -31 25 -76 27 -94 6 -16 -19 -59
-19 -84 0 -28 21 -72 19 -96 -5 -11 -11 -26 -17 -35 -14 -17 7 -30 47 -20 63
7 12 2 15 -8 4z"/>
<path d="M4515 5934 c-25 -20 -26 -22 -8 -18 12 4 28 13 34 20 20 24 5 23 -26
-2z"/>
<path d="M3390 5935 c-7 -8 -20 -15 -29 -14 -12 0 -11 2 4 9 19 8 19 9 -2 9
-13 1 -23 -3 -23 -9 0 -5 -14 -24 -32 -41 -23 -22 -29 -32 -20 -38 7 -4 14
-19 15 -32 3 -43 90 -129 129 -129 11 0 16 5 13 10 -4 6 13 19 37 30 24 11 39
20 33 21 -5 0 -37 2 -70 3 -33 1 -66 5 -72 9 -19 12 -16 36 5 33 9 -2 22 4 28
13 10 13 14 13 28 2 14 -11 16 -11 16 2 0 14 15 15 103 12 56 -2 104 -4 107
-5 3 -1 17 -1 33 0 15 1 27 -3 27 -8 0 -4 14 -7 30 -4 18 2 30 0 30 -7 0 -6 7
-8 15 -5 9 4 15 0 15 -10 0 -9 -8 -17 -17 -18 -53 -4 -91 -9 -113 -12 -14 -2
-54 -4 -89 -5 -35 0 -61 -4 -58 -8 4 -3 36 -6 71 -5 52 0 68 -3 82 -19 16 -17
16 -22 4 -29 -21 -13 1 -12 41 2 19 6 63 36 99 65 50 42 66 61 67 83 2 19 -2
30 -10 30 -8 0 -24 11 -37 25 -25 27 -45 33 -37 12 3 -8 -1 -14 -8 -14 -8 0
-12 9 -9 24 2 13 0 23 -5 23 -5 0 -9 -13 -9 -30 1 -17 7 -30 13 -30 10 0 25
-20 25 -34 0 -2 -21 4 -46 12 -40 13 -49 13 -73 1 -14 -8 -39 -13 -56 -11 -16
2 -64 4 -105 5 -67 2 -75 4 -72 21 3 16 -1 18 -35 12 -21 -4 -48 -14 -60 -22
-33 -21 -28 -3 7 28 17 14 30 33 30 42 0 20 -4 20 -20 1z m210 -89 c0 -11 -19
-15 -25 -6 -3 5 1 10 9 10 9 0 16 -2 16 -4z"/>
<path d="M3421 5934 c0 -11 3 -14 6 -6 3 7 2 16 -1 19 -3 4 -6 -2 -5 -13z"/>
<path d="M4457 5890 c4 -16 8 -18 19 -9 16 13 10 29 -11 29 -8 0 -11 -7 -8
-20z"/>
<path d="M4196 5177 c-10 -23 -20 -73 -23 -112 -3 -38 -12 -79 -19 -90 -8 -11
-14 -32 -14 -48 0 -24 2 -27 14 -18 8 7 13 22 10 34 -2 11 2 24 8 28 7 4 12
26 12 48 1 23 5 41 9 41 5 0 7 6 4 13 -2 6 3 28 11 47 19 46 25 87 14 94 -5 3
-17 -14 -26 -37z"/>
<path d="M3122 5078 c-13 -17 -23 -91 -36 -258 -2 -25 -7 -53 -11 -62 -8 -21
8 -24 23 -5 5 6 12 67 14 133 3 92 8 128 21 147 27 41 18 80 -11 45z"/>
<path d="M5081 4907 c-6 -6 -7 -15 -2 -21 19 -24 41 -161 56 -351 12 -156 14
-285 10 -585 -3 -212 -7 -398 -9 -415 -2 -16 -7 -82 -11 -145 -3 -63 -11 -120
-16 -126 -5 -6 -4 -15 3 -22 7 -7 9 -106 4 -344 -3 -183 -8 -349 -10 -368 -3
-19 -10 -145 -16 -280 -10 -243 -21 -411 -60 -895 -11 -137 -22 -322 -25 -410
-3 -88 -13 -302 -20 -475 -8 -173 -15 -350 -15 -392 l0 -78 403 0 402 0 35 54
c19 30 88 111 153 180 65 70 134 152 154 184 20 31 62 91 93 132 80 104 96
141 103 232 6 92 20 116 96 168 31 20 63 46 72 56 53 60 129 251 123 309 -3
25 7 84 27 160 38 141 47 219 28 241 -12 14 -17 132 -21 423 0 25 -6 50 -13
57 -7 7 -18 41 -24 76 -7 35 -18 81 -25 103 -23 69 -86 368 -103 490 -3 21
-12 50 -21 62 -8 13 -15 43 -15 66 0 26 -7 51 -18 66 -11 13 -19 40 -19 59 0
20 -7 43 -16 53 -9 10 -19 44 -23 76 -4 32 -15 70 -25 85 -9 14 -18 41 -18 60
0 18 -9 47 -20 65 -10 17 -20 47 -21 66 -2 19 -11 42 -20 52 -9 9 -17 24 -17
33 -1 9 -8 35 -17 57 -8 22 -18 90 -22 153 -4 68 -11 116 -18 120 -6 4 -18 34
-26 67 -25 100 -54 171 -139 340 -44 86 -98 162 -184 254 -29 32 -50 62 -46
66 4 5 2 5 -5 2 -6 -4 -24 3 -40 16 -75 63 -248 144 -326 154 -23 3 -58 14
-77 23 -19 10 -60 20 -91 24 -31 4 -79 13 -107 20 -35 10 -53 11 -61 3z m529
-2461 c5 -33 6 -76 1 -103 -8 -43 -7 -48 17 -67 14 -12 28 -23 32 -26 9 -7 58
-111 66 -140 3 -14 13 -33 21 -42 11 -12 16 -47 17 -128 2 -81 6 -114 16 -120
8 -5 15 -33 18 -69 4 -58 3 -61 -22 -71 -15 -5 -36 -10 -47 -10 -32 0 -71 -56
-112 -164 -41 -107 -46 -146 -32 -259 9 -76 12 -70 -75 -128 -42 -27 -46 -28
-57 -12 -17 23 -16 79 2 150 8 32 19 115 24 184 5 70 16 151 25 180 9 30 18
116 22 191 3 76 9 136 14 133 4 -2 10 60 13 138 3 78 10 153 15 167 5 13 5 40
1 60 -10 43 -12 204 -2 214 14 14 34 -22 43 -78z m-245 -2104 c22 -12 53 -30
69 -41 41 -28 177 -163 171 -170 -4 -3 -10 1 -15 9 -6 8 -10 11 -10 7 0 -5
-13 1 -30 13 -18 12 -30 16 -30 10 0 -7 -7 -10 -15 -6 -8 3 -15 1 -15 -5 0 -7
-10 -9 -24 -5 -14 3 -28 1 -31 -4 -4 -6 -21 -17 -40 -24 -22 -10 -35 -22 -37
-38 -2 -16 -12 1 -31 57 -22 63 -67 217 -67 231 0 7 71 -16 105 -34z"/>
<path d="M4129 4888 c-9 -32 -3 -48 15 -47 12 0 16 3 9 5 -7 3 -10 11 -7 19 3
7 1 16 -5 20 -6 3 -11 5 -12 3z"/>
<path d="M4138 4796 c-3 -14 -1 -31 3 -38 6 -8 9 1 9 25 0 42 -6 48 -12 13z"/>
<path d="M4111 4794 c0 -11 3 -14 6 -6 3 7 2 16 -1 19 -3 4 -6 -2 -5 -13z"/>
<path d="M3061 4672 c-6 -33 -9 -67 -5 -76 3 -9 2 -16 -4 -16 -6 0 -8 -9 -5
-20 3 -11 9 -20 13 -20 14 0 18 23 12 78 -4 40 -1 57 12 71 14 15 14 20 3 30
-12 9 -16 1 -26 -47z"/>
<path d="M4132 4695 c-2 -19 2 -35 7 -35 5 0 9 16 8 35 -1 19 -4 35 -7 35 -3
0 -7 -16 -8 -35z"/>
<path d="M2595 4620 c-3 -5 -24 -14 -47 -21 -22 -6 -54 -19 -69 -30 -16 -10
-42 -28 -59 -39 -16 -11 -34 -20 -39 -20 -6 0 -14 -6 -18 -12 -4 -7 -20 -20
-35 -28 -53 -30 -164 -124 -196 -166 -34 -43 -58 -89 -107 -199 -14 -33 -32
-73 -40 -90 -7 -16 -17 -46 -20 -65 -3 -19 -12 -51 -19 -70 -46 -119 -65 -221
-91 -481 -8 -80 -19 -158 -25 -173 -17 -46 -51 -375 -63 -615 -10 -224 -10
-224 12 -267 27 -50 23 -68 -25 -131 l-34 -45 0 -313 c0 -296 1 -316 21 -362
28 -65 33 -242 7 -288 -9 -16 -28 -53 -41 -81 l-25 -51 45 -94 c38 -79 58
-106 124 -169 77 -75 78 -76 72 -119 -3 -23 -1 -66 5 -94 6 -29 18 -99 26
-156 11 -72 20 -107 31 -113 8 -5 15 -13 15 -19 0 -5 18 -32 40 -60 25 -32 40
-61 40 -79 0 -15 7 -60 16 -99 l16 -71 55 0 54 0 -6 293 c-3 160 -8 300 -11
310 -6 20 -24 23 -24 4 0 -7 -17 -26 -38 -42 -21 -15 -49 -43 -62 -61 -34 -45
-45 -43 -21 5 22 43 97 121 117 121 6 0 15 8 19 18 4 9 6 213 5 452 -5 916 -4
1033 10 1320 10 188 14 438 12 690 -5 586 26 884 114 1110 35 88 110 209 186
301 91 110 91 109 85 109 -3 0 -9 -4 -12 -10z"/>
<path d="M3035 4469 c-8 -12 14 -31 30 -26 6 2 10 10 10 18 0 17 -31 24 -40 8z"/>
<path d="M3037 4393 c-13 -13 -7 -29 12 -30 11 -1 21 6 24 18 4 13 0 19 -12
19 -10 0 -21 -3 -24 -7z"/>
<path d="M3035 4250 c-3 -5 -1 -10 4 -10 6 0 11 5 11 10 0 6 -2 10 -4 10 -3 0
-8 -4 -11 -10z"/>
<path d="M5100 4074 c0 -8 5 -12 10 -9 6 4 8 11 5 16 -9 14 -15 11 -15 -7z"/>
<path d="M5100 3720 c0 -5 5 -10 11 -10 5 0 7 5 4 10 -3 6 -8 10 -11 10 -2 0
-4 -4 -4 -10z"/>
<path d="M5090 3611 c0 -29 15 -33 18 -5 1 13 -3 24 -8 24 -6 0 -10 -9 -10
-19z"/>
<path d="M4068 3413 c7 -3 16 -2 19 1 4 3 -2 6 -13 5 -11 0 -14 -3 -6 -6z"/>
<path d="M5077 3263 c-4 -3 -7 -11 -7 -17 0 -6 5 -5 12 2 6 6 9 14 7 17 -3 3
-9 2 -12 -2z"/>
<path d="M4011 2671 c-8 -5 -10 -14 -7 -20 9 -13 33 -15 40 -2 9 14 -18 31
-33 22z"/>
<path d="M4010 2565 c12 -15 30 -12 30 6 0 5 -10 9 -21 9 -18 0 -19 -2 -9 -15z"/>
<path d="M4000 2260 c-8 -5 -12 -12 -8 -15 10 -10 49 5 43 16 -8 11 -16 11
-35 -1z"/>
<path d="M3966 1503 c-3 -3 -3 -10 0 -14 7 -12 34 -11 34 0 0 11 -26 22 -34
14z"/>
<path d="M4910 442 c0 -5 7 -9 15 -9 8 0 12 4 9 9 -3 4 -9 8 -15 8 -5 0 -9 -4
-9 -8z"/>
<path d="M4300 32 c0 -34 10 -41 29 -19 8 11 6 18 -9 32 -20 18 -20 17 -20
-13z"/>
<path d="M4435 53 c-11 -3 -24 -9 -29 -14 -14 -13 13 -39 40 -39 20 0 24 5 24
30 0 17 -3 29 -7 29 -5 -1 -17 -3 -28 -6z"/>
<path d="M4375 10 c-3 -5 -1 -10 4 -10 6 0 11 5 11 10 0 6 -2 10 -4 10 -3 0
-8 -4 -11 -10z"/>
</g>
</svg>
